<svg width="30" height="30" viewBox="0 0 30 30" fill="none" xmlns="http://www.w3.org/2000/svg">
<path d="M17.3417 23.1933C17.8161 22.5615 18.16 21.8416 18.3533 21.0756C18.4125 20.8408 18.4554 20.6022 18.4816 20.3615L17.3417 23.1933ZM17.3417 23.1933C16.1586 24.7719 13.9021 26.1685 9.75073 26.1685C5.59938 26.1685 3.34286 24.7719 2.15976 23.1933C1.68574 22.5614 1.34226 21.8415 1.14935 21.0756L17.3417 23.1933ZM17.1384 20.7721C17.1944 20.5503 17.2313 20.3242 17.2487 20.0962L17.2488 20.0962L17.2494 20.0859L17.2505 20.0649L17.2513 20.051V20.0372V19.4596C17.2513 19.0949 17.1064 18.7452 16.8486 18.4873C16.5907 18.2294 16.2409 18.0845 15.8762 18.0845H3.62522C3.26053 18.0845 2.91077 18.2294 2.6529 18.4873C2.39502 18.7452 2.25015 19.0949 2.25015 19.4596V20.0372V20.0582V20.0806L2.25216 20.103L2.26266 20.2197L2.26259 20.2197L2.26345 20.2277C2.27703 20.3554 2.30388 20.5437 2.36215 20.7731C2.51438 21.377 2.78511 21.9446 3.1586 22.443L3.15898 22.4435C4.05885 23.6411 5.90382 24.9184 9.75073 24.9184C13.5975 24.9184 15.4427 23.6412 16.3415 22.4432C16.798 21.8354 17.0255 21.2271 17.1384 20.7721ZM17.1384 20.7721C17.1383 20.7726 17.1381 20.7731 17.138 20.7735L16.6533 20.6509L17.1386 20.7712C17.1385 20.7715 17.1385 20.7718 17.1384 20.7721ZM17.9846 20.3073C17.9608 20.5251 17.922 20.7409 17.8685 20.9534C17.6914 21.655 17.3764 22.3144 16.9419 22.893L16.9416 22.8934C15.8725 24.3199 13.7805 25.6685 9.75073 25.6685C5.72096 25.6685 3.62893 24.3199 2.55987 22.8934L2.55972 22.8932C2.12556 22.3145 1.81095 21.6552 1.63424 20.9536C1.56549 20.6789 1.52145 20.3986 1.50263 20.116L1.5 20.066V19.4596C1.5 18.896 1.72391 18.3554 2.12246 17.9569C2.52102 17.5583 3.06158 17.3344 3.62522 17.3344H15.8762C16.4399 17.3344 16.9804 17.5583 17.379 17.9569C17.7776 18.3554 18.0015 18.896 18.0015 19.4596V20.0767C18.0007 20.1502 17.9955 20.2235 17.9859 20.2963L17.9858 20.2963L17.9846 20.3073ZM19.6042 17.3344H26.3748C26.9384 17.3344 27.479 17.5583 27.8775 17.9569C28.2761 18.3554 28.5 18.896 28.5 19.4596V19.484L28.4985 19.5192C28.4825 19.7196 28.4464 19.9179 28.3907 20.111C28.242 20.6078 27.9872 21.0665 27.6439 21.4552L27.6427 21.4567C26.7842 22.4366 25.1358 23.335 21.9994 23.335C20.9729 23.335 20.1045 23.2379 19.3722 23.0738C19.488 22.8463 19.5921 22.6129 19.6841 22.3746C20.3264 22.5066 21.0901 22.5848 21.9994 22.5848C24.9884 22.5848 26.4021 21.7345 27.0753 20.9642C27.3469 20.6589 27.5493 20.2986 27.6686 19.9078L27.6686 19.9078L27.6704 19.9018C27.7023 19.7922 27.7259 19.6804 27.7409 19.5673L27.741 19.5673L27.7423 19.5557L27.7481 19.502L27.7514 19.4717L27.751 19.4413C27.7462 19.0798 27.5992 18.7347 27.3418 18.4808C27.0845 18.2269 26.7375 18.0845 26.3759 18.0845C26.3759 18.0845 26.3759 18.0845 26.3759 18.0845H19.9416C19.8528 17.8221 19.7393 17.5711 19.6042 17.3344ZM7.93282 4.86161C8.50917 4.62287 9.12689 4.5 9.75073 4.5C11.0106 4.5 12.2189 5.00049 13.1098 5.89137L13.4633 5.53782L13.1098 5.89137C14.0007 6.78225 14.5012 7.99054 14.5012 9.25044C14.5012 10.5103 14.0007 11.7186 13.1098 12.6095C12.2189 13.5004 11.0106 14.0009 9.75073 14.0009C9.12689 14.0009 8.50916 13.878 7.93282 13.6393C7.35647 13.4005 6.83278 13.0506 6.39166 12.6095C5.95054 12.1684 5.60063 11.6447 5.3619 11.0684C5.12317 10.492 5.00029 9.87427 5.00029 9.25044C5.00029 8.6266 5.12317 8.00887 5.3619 7.43252C5.60063 6.85617 5.95054 6.33249 6.39166 5.89137C6.83278 5.45025 7.35647 5.10034 7.93282 4.86161ZM6.05494 7.71959C5.85391 8.20493 5.75044 8.72511 5.75044 9.25044C5.75044 10.3114 6.1719 11.3289 6.9221 12.0791C7.6723 12.8293 8.68979 13.2507 9.75073 13.2507C10.8117 13.2507 11.8292 12.8293 12.5794 12.0791C13.3296 11.3289 13.751 10.3114 13.751 9.25044C13.751 8.72511 13.6476 8.20493 13.4465 7.71959C13.2455 7.23426 12.9508 6.79327 12.5794 6.4218C12.2079 6.05034 11.7669 5.75568 11.2816 5.55465C10.7962 5.35362 10.2761 5.25015 9.75073 5.25015C9.2254 5.25015 8.70522 5.35362 8.21988 5.55465C7.73455 5.75568 7.29356 6.05034 6.9221 6.4218C6.55063 6.79327 6.25598 7.23425 6.05494 7.71959ZM19.4677 7.88316C20.1398 7.21109 21.0513 6.83353 22.0018 6.83353C22.9522 6.83353 23.8637 7.21109 24.5358 7.88316C25.2079 8.55523 25.5854 9.46675 25.5854 10.4172C25.5854 11.3677 25.2079 12.2792 24.5358 12.9512C23.8637 13.6233 22.9522 14.0009 22.0018 14.0009C21.0513 14.0009 20.1398 13.6233 19.4677 12.9512C18.7956 12.2792 18.4181 11.3677 18.4181 10.4172C18.4181 9.46675 18.7956 8.55523 19.4677 7.88316ZM19.9981 8.41359C19.4668 8.94498 19.1682 9.6657 19.1682 10.4172C19.1682 11.1687 19.4668 11.8894 19.9981 12.4208C20.5295 12.9522 21.2503 13.2507 22.0018 13.2507C22.7532 13.2507 23.474 12.9522 24.0054 12.4208C24.5367 11.8894 24.8353 11.1687 24.8353 10.4172C24.8353 9.6657 24.5367 8.94498 24.0054 8.4136C23.474 7.88221 22.7532 7.58367 22.0018 7.58367C21.2503 7.58367 20.5295 7.88221 19.9981 8.41359Z" fill="#ffffff" stroke="#FFFBF0"/>
</svg>
