<svg width="78" height="77" viewBox="0 0 78 77" fill="none" xmlns="http://www.w3.org/2000/svg">
<path d="M39 75.5C59.6908 75.5 76.5 58.9542 76.5 38.5C76.5 18.0458 59.6908 1.5 39 1.5C18.3092 1.5 1.5 18.0458 1.5 38.5C1.5 58.9542 18.3092 75.5 39 75.5Z" fill="#FAA93D" stroke="white" stroke-width="3"/>
<ellipse cx="39" cy="36" rx="35" ry="33" fill="url(#paint0_radial_2165_4321)"/>
<path d="M20.9091 38.7753C20.2472 34.4679 19.9162 32.3143 20.7306 30.4051C21.5449 28.4959 23.3516 27.1896 26.9649 24.577L29.6646 22.625C34.1595 19.375 36.4071 17.75 39.0002 17.75C41.5935 17.75 43.8409 19.375 48.3358 22.625L51.0356 24.577C54.649 27.1896 56.4557 28.4959 57.27 30.4051C58.0843 32.3143 57.7534 34.4679 57.0913 38.7753L56.527 42.4483C55.5887 48.5542 55.1194 51.6073 52.9296 53.4286C50.7398 55.25 47.5384 55.25 41.1355 55.25H36.865C30.4621 55.25 27.2607 55.25 25.0709 53.4286C22.881 51.6073 22.4119 48.5542 21.4736 42.4483L20.9091 38.7753Z" fill="#E6A957" stroke="#E6A957" stroke-width="2" stroke-linejoin="round"/>
<path d="M44.6252 45.875C43.1261 47.042 41.157 47.75 39.0002 47.75C36.8436 47.75 34.8744 47.042 33.3752 45.875" stroke="#FFBF6A" stroke-width="2" stroke-linecap="round"/>
<path d="M20.4091 36.7753C19.7472 32.4679 19.4162 30.3143 20.2306 28.4051C21.0449 26.4959 22.8516 25.1896 26.4649 22.577L29.1646 20.625C33.6595 17.375 35.9071 15.75 38.5002 15.75C41.0935 15.75 43.3409 17.375 47.8358 20.625L50.5356 22.577C54.149 25.1896 55.9557 26.4959 56.77 28.4051C57.5843 30.3143 57.2534 32.4679 56.5913 36.7753L56.027 40.4483C55.0887 46.5542 54.6194 49.6073 52.4296 51.4286C50.2398 53.25 47.0384 53.25 40.6355 53.25H36.365C29.9621 53.25 26.7607 53.25 24.5709 51.4286C22.381 49.6073 21.9119 46.5542 20.9736 40.4483L20.4091 36.7753Z" fill="white" stroke="white" stroke-width="2" stroke-linejoin="round"/>
<path d="M44.1252 43.875C42.6261 45.042 40.657 45.75 38.5002 45.75C36.3436 45.75 34.3744 45.042 32.8752 43.875" stroke="#FFBF6A" stroke-width="2" stroke-linecap="round"/>
<defs>
<radialGradient id="paint0_radial_2165_4321" cx="0" cy="0" r="1" gradientUnits="userSpaceOnUse" gradientTransform="translate(39 36) rotate(90) scale(33 35)">
<stop stop-color="#FDCD71"/>
<stop offset="1" stop-color="#FF9D25"/>
</radialGradient>
</defs>
</svg>
