<svg width="30" height="30" viewBox="0 0 30 30" fill="#F6951F" xmlns="http://www.w3.org/2000/svg">
<path d="M14.24 3.55704L15.4984 0.897492L16.7568 3.55704L16.9599 3.98627H17.3846L20.2031 4.40802L18.0946 6.5271L17.8236 6.79949L17.8864 7.17859L18.379 10.1542L15.8695 8.78308L15.5081 8.58563L15.1475 8.78458L12.6237 10.1771L13.1162 7.2025L13.1785 6.82594L12.9108 6.55391L10.7988 4.40811L13.6731 3.97801L14.0689 3.91879L14.24 3.55704Z" stroke="#FFFBF0" stroke-width="1.5"/>
<path d="M11.25 15.8212C11.25 15.1473 11.6916 14.8135 12 14.8135H18C18.3084 14.8135 18.75 15.1473 18.75 15.8212V26.3673C18.75 27.0412 18.3084 27.375 18 27.375H12C11.6916 27.375 11.25 27.0412 11.25 26.3673V15.8212ZM0.75 19.3366C0.75 18.6627 1.19164 18.3289 1.5 18.3289H7.5C7.80836 18.3289 8.25 18.6627 8.25 19.3366V26.3673C8.25 27.0412 7.80836 27.375 7.5 27.375H1.5C1.19164 27.375 0.75 27.0412 0.75 26.3673V19.3366ZM21.75 26.3673V22.852C21.75 22.178 22.1916 21.8443 22.5 21.8443H28.5C28.8084 21.8443 29.25 22.178 29.25 22.852V26.3673C29.25 27.0412 28.8084 27.375 28.5 27.375H22.5C22.1916 27.375 21.75 27.0412 21.75 26.3673Z" stroke="#FFFBF0" stroke-width="1.5"/>
</svg>
