<svg width="16" height="16" viewBox="0 0 16 16" fill="none" xmlns="http://www.w3.org/2000/svg">
<path d="M5.19999 7.73333C5.56769 7.73333 5.93179 7.66091 6.27151 7.52019C6.61122 7.37948 6.91989 7.17323 7.17989 6.91323C7.43989 6.65323 7.64614 6.34456 7.78685 6.00485C7.92757 5.66513 7.99999 5.30103 7.99999 4.93333C7.99999 4.56563 7.92757 4.20153 7.78685 3.86182C7.64614 3.52211 7.43989 3.21344 7.17989 2.95343C6.91989 2.69343 6.61122 2.48718 6.27151 2.34647C5.93179 2.20576 5.56769 2.13333 5.19999 2.13333C4.45739 2.13333 3.74519 2.42833 3.22009 2.95343C2.69499 3.47853 2.39999 4.19073 2.39999 4.93333C2.39999 5.67594 2.69499 6.38813 3.22009 6.91323C3.74519 7.43833 4.45739 7.73333 5.19999 7.73333ZM9.92888 12.474C10.4036 12.6203 10.9954 12.7111 11.7333 12.7111C15.4667 12.7111 15.4667 10.3778 15.4667 10.3778C15.4667 10.0065 15.3192 9.65038 15.0566 9.38783C14.7941 9.12528 14.438 8.97778 14.0667 8.97778H9.92515C10.2868 9.35405 10.4884 9.85589 10.4876 10.3778V10.7231L10.4858 10.7748C10.4726 10.9826 10.4406 11.1888 10.3899 11.3908C10.2937 11.7734 10.1383 12.1387 9.9295 12.4734M13.9111 5.55555C13.9111 5.84154 13.8548 6.12473 13.7453 6.38895C13.6359 6.65317 13.4755 6.89325 13.2732 7.09548C13.071 7.2977 12.8309 7.45811 12.5667 7.56756C12.3025 7.677 12.0193 7.73333 11.7333 7.73333C11.4473 7.73333 11.1641 7.677 10.8999 7.56756C10.6357 7.45811 10.3956 7.2977 10.1934 7.09548C9.99118 6.89325 9.83076 6.65317 9.72132 6.38895C9.61188 6.12473 9.55555 5.84154 9.55555 5.55555C9.55555 4.97797 9.78499 4.42404 10.1934 4.01563C10.6018 3.60722 11.1557 3.37778 11.7333 3.37778C12.3109 3.37778 12.8648 3.60722 13.2732 4.01563C13.6817 4.42404 13.9111 4.97797 13.9111 5.55555ZM0.533325 10.3778C0.533325 10.0065 0.680825 9.65038 0.943376 9.38783C1.20593 9.12528 1.56202 8.97778 1.93333 8.97778H8.46666C8.83796 8.97778 9.19406 9.12528 9.45661 9.38783C9.71916 9.65038 9.86666 10.0065 9.86666 10.3778V10.6889C9.86666 10.6889 9.86666 13.9556 5.19999 13.9556C0.533325 13.9556 0.533325 10.6889 0.533325 10.6889V10.3778Z" fill="#FFBF6A"/>
</svg>
