<svg width="16" height="16" viewBox="0 0 16 16" fill="none" xmlns="http://www.w3.org/2000/svg">
<path d="M8.52712 15.5726L8.51734 15.5741L8.45423 15.601L8.43645 15.6041L8.42401 15.601L8.3609 15.5741C8.35142 15.5716 8.34431 15.5729 8.33957 15.578L8.33601 15.5857L8.3209 15.9147L8.32534 15.9301L8.33423 15.94L8.42668 15.9969L8.44001 16L8.45068 15.9969L8.54312 15.94L8.55379 15.9277L8.55734 15.9147L8.54223 15.5864C8.53986 15.5782 8.53483 15.5736 8.52712 15.5726ZM8.76268 15.4857L8.75112 15.4873L8.58668 15.5588L8.57779 15.5664L8.57512 15.5749L8.59112 15.9055L8.59557 15.9147L8.60268 15.9201L8.78134 15.9915C8.7926 15.9941 8.8012 15.9921 8.80712 15.9854L8.81068 15.9746L8.78045 15.5026C8.77749 15.4934 8.77157 15.4878 8.76268 15.4857ZM8.12712 15.4873C8.1232 15.4852 8.11852 15.4846 8.11405 15.4854C8.10958 15.4863 8.10566 15.4886 8.10312 15.4919L8.09779 15.5026L8.06757 15.9746C8.06816 15.9839 8.0732 15.99 8.08268 15.9931L8.09601 15.9915L8.27468 15.9201L8.28357 15.9139L8.28712 15.9055L8.30223 15.5749L8.29957 15.5657L8.29068 15.558L8.12712 15.4873Z" fill="#FFBF6A"/>
<path d="M14 10.5565V11.5088C14 12.08 13.746 12.5684 13.3933 12.9523C13.0447 13.3326 12.5713 13.6428 12.0387 13.8884C10.9707 14.3796 9.54267 14.6666 8 14.6666C6.45733 14.6666 5.02933 14.3803 3.96133 13.8884C3.42867 13.6428 2.95533 13.3326 2.60667 12.9523C2.28333 12.6014 2.04333 12.1607 2.00533 11.6498L2 11.5088V10.5565C2.30978 10.7427 2.64178 10.9052 2.996 11.0442C4.34933 11.5712 6.11933 11.8652 8 11.8652C9.88067 11.8652 11.6507 11.5712 13.004 11.0442C13.2698 10.9403 13.5229 10.8227 13.7633 10.6912L14 10.5565ZM2 6.69682C2.30978 6.88302 2.64178 7.04559 2.996 7.18454C4.34933 7.71156 6.11933 8.00559 8 8.00559C9.88067 8.00559 11.6507 7.71156 13.004 7.18454C13.3482 7.05109 13.6813 6.88796 14 6.69682V8.87577C13.5575 9.23571 13.0657 9.52295 12.5413 9.7277C11.3713 10.1838 9.76533 10.4624 8 10.4624C6.23533 10.4624 4.62933 10.1838 3.45867 9.7277C2.93434 9.52295 2.44253 9.23571 2 8.87577V6.69682ZM8 1.33331C9.54267 1.33331 10.9707 1.61963 12.0387 2.11156C12.5713 2.35717 13.0447 2.66735 13.3933 3.0477C13.7167 3.39858 13.9567 3.83928 13.9947 4.35016L14 4.49121V5.01612C13.5575 5.37606 13.0657 5.6633 12.5413 5.86805C11.3713 6.32419 9.76533 6.60279 8 6.60279C6.23533 6.60279 4.62933 6.32419 3.45867 5.86805C3.008 5.6918 2.58107 5.45448 2.18867 5.16209L2 5.01612V4.49121C2 3.91998 2.254 3.43156 2.60667 3.0477C2.95533 2.66735 3.42867 2.35717 3.96133 2.11156C5.02933 1.62033 6.45733 1.33331 8 1.33331Z" fill="#FFBF6A"/>
</svg>
