<svg width="11" height="11" viewBox="0 0 11 11" fill="none" xmlns="http://www.w3.org/2000/svg">
<path d="M5.5 1.125C6.66032 1.125 7.77312 1.58594 8.59359 2.40641C9.41406 3.22688 9.875 4.33968 9.875 5.5C9.875 6.66032 9.41406 7.77312 8.59359 8.59359C7.77312 9.41406 6.66032 9.875 5.5 9.875C4.33968 9.875 3.22688 9.41406 2.40641 8.59359C1.58594 7.77312 1.125 6.66032 1.125 5.5C1.125 4.33968 1.58594 3.22688 2.40641 2.40641C3.22688 1.58594 4.33968 1.125 5.5 1.125ZM4.955 6.36312L3.98312 5.39062C3.94828 5.35578 3.90692 5.32815 3.8614 5.30929C3.81588 5.29043 3.76709 5.28073 3.71781 5.28073C3.66854 5.28073 3.61975 5.29043 3.57423 5.30929C3.5287 5.32815 3.48734 5.35578 3.4525 5.39062C3.38213 5.46099 3.3426 5.55643 3.3426 5.65594C3.3426 5.75545 3.38213 5.85088 3.4525 5.92125L4.69 7.15875C4.72474 7.19377 4.76607 7.22156 4.81161 7.24053C4.85714 7.2595 4.90598 7.26926 4.95531 7.26926C5.00464 7.26926 5.05348 7.2595 5.09902 7.24053C5.14455 7.22156 5.18588 7.19377 5.22062 7.15875L7.78312 4.59562C7.81843 4.56093 7.84652 4.51958 7.86577 4.47398C7.88502 4.42837 7.89505 4.37941 7.89528 4.3299C7.89551 4.2804 7.88593 4.23135 7.86711 4.18556C7.84829 4.13978 7.82058 4.09818 7.7856 4.06315C7.75062 4.02813 7.70905 4.00038 7.66329 3.9815C7.61753 3.96262 7.56848 3.95299 7.51898 3.95316C7.46948 3.95333 7.4205 3.9633 7.37487 3.9825C7.32924 4.00169 7.28786 4.02973 7.25313 4.065L4.955 6.36312Z" fill="white"/>
</svg>
