<svg width="31" height="31" viewBox="0 0 31 31" fill="none" xmlns="http://www.w3.org/2000/svg">
<circle cx="15.5" cy="15.5" r="14" fill="url(#paint0_linear_2127_5508)" stroke="white" stroke-width="3"/>
<path d="M11.9521 9.93869L11.9522 9.93882L15.1467 13.1309L15.5001 13.4841L15.8536 13.1309L19.0481 9.93882L19.0485 9.93845C19.3975 9.58894 19.7635 9.48107 20.0925 9.50264C20.4345 9.52506 20.7763 9.69092 21.0425 9.957C21.3087 10.2231 21.4748 10.5649 21.4973 10.9069C21.519 11.2361 21.4113 11.6024 21.0616 11.9521L21.0615 11.9522L17.8694 15.1467L17.5162 15.5001L17.8694 15.8536L21.0615 19.0481L21.0618 19.0485C21.4113 19.3975 21.519 19.7633 21.4973 20.0923C21.4748 20.4343 21.3087 20.7762 21.0425 21.0425C20.7762 21.3087 20.4343 21.4748 20.0923 21.4973C19.7633 21.519 19.3975 21.4113 19.0485 21.0618L19.0481 21.0615L15.8536 17.8694L15.5001 17.5162L15.1467 17.8694L11.9522 21.0615L11.9521 21.0616C11.6024 21.4113 11.2361 21.519 10.9069 21.4973C10.5649 21.4748 10.2231 21.3087 9.957 21.0425C9.69092 20.7763 9.52506 20.4345 9.50264 20.0925C9.48107 19.7635 9.58894 19.3975 9.93845 19.0485L9.93882 19.0481L13.1309 15.8536L13.4841 15.5001L13.1309 15.1467L9.93882 11.9522L9.93869 11.9521C9.58897 11.6023 9.48106 11.2359 9.50264 10.9067C9.52506 10.5646 9.69092 10.2229 9.95692 9.95692C10.2229 9.69092 10.5646 9.52506 10.9067 9.50264C11.2359 9.48106 11.6023 9.58897 11.9521 9.93869Z" fill="white" stroke="white"/>
<defs>
<linearGradient id="paint0_linear_2127_5508" x1="15.5" y1="3" x2="27.9267" y2="19.9185" gradientUnits="userSpaceOnUse">
<stop stop-color="#FF9D56"/>
<stop offset="1" stop-color="#FFC59B"/>
</linearGradient>
</defs>
</svg>
