<svg width="10" height="11" viewBox="0 0 10 11" fill="none" xmlns="http://www.w3.org/2000/svg">
<path d="M5.32946 10.2329L5.32335 10.2338L5.2839 10.2507L5.27279 10.2526L5.26501 10.2507L5.22557 10.2338C5.21964 10.2322 5.2152 10.233 5.21224 10.2362L5.21001 10.241L5.20057 10.4467L5.20335 10.4563L5.2089 10.4625L5.26668 10.4981L5.27501 10.5L5.28168 10.4981L5.33946 10.4625L5.34613 10.4548L5.34835 10.4467L5.3389 10.2415C5.33742 10.2364 5.33427 10.2335 5.32946 10.2329ZM5.47668 10.1786L5.46946 10.1796L5.36668 10.2242L5.36112 10.229L5.35946 10.2343L5.36946 10.4409L5.37224 10.4467L5.37668 10.45L5.48835 10.4947C5.49538 10.4963 5.50075 10.495 5.50446 10.4909L5.50668 10.4842L5.48779 10.1892C5.48594 10.1834 5.48224 10.1799 5.47668 10.1786ZM5.07946 10.1796C5.07701 10.1783 5.07408 10.1779 5.07129 10.1784C5.06849 10.1789 5.06605 10.1804 5.06446 10.1824L5.06112 10.1892L5.04224 10.4842C5.04261 10.4899 5.04575 10.4938 5.05168 10.4957L5.06001 10.4947L5.17168 10.45L5.17724 10.4462L5.17946 10.4409L5.1889 10.2343L5.18724 10.2286L5.18168 10.2238L5.07946 10.1796Z" fill="#CF5A15"/>
<path d="M5.32946 10.2329L5.32335 10.2338L5.2839 10.2507L5.27279 10.2526L5.26501 10.2507L5.22557 10.2338C5.21964 10.2322 5.2152 10.233 5.21224 10.2362L5.21001 10.241L5.20057 10.4467L5.20335 10.4563L5.2089 10.4625L5.26668 10.4981L5.27501 10.5L5.28168 10.4981L5.33946 10.4625L5.34613 10.4548L5.34835 10.4467L5.3389 10.2415C5.33742 10.2364 5.33427 10.2335 5.32946 10.2329ZM5.47668 10.1786L5.46946 10.1796L5.36668 10.2242L5.36112 10.229L5.35946 10.2343L5.36946 10.4409L5.37224 10.4467L5.37668 10.45L5.48835 10.4947C5.49538 10.4963 5.50075 10.495 5.50446 10.4909L5.50668 10.4842L5.48779 10.1892C5.48594 10.1834 5.48224 10.1799 5.47668 10.1786ZM5.07946 10.1796C5.07701 10.1783 5.07408 10.1779 5.07129 10.1784C5.06849 10.1789 5.06605 10.1804 5.06446 10.1824L5.06112 10.1892L5.04224 10.4842C5.04261 10.4899 5.04575 10.4938 5.05168 10.4957L5.06001 10.4947L5.17168 10.45L5.17724 10.4462L5.17946 10.4409L5.1889 10.2343L5.18724 10.2286L5.18168 10.2238L5.07946 10.1796Z" fill="url(#paint0_linear_2245_605)"/>
<path d="M8.75 7.09782V7.69299C8.75 8.05001 8.59125 8.35527 8.37083 8.59519C8.15292 8.83291 7.85708 9.02677 7.52417 9.18027C6.85667 9.48729 5.96417 9.66668 5 9.66668C4.03583 9.66668 3.14333 9.48773 2.47583 9.18027C2.14292 9.02677 1.84708 8.83291 1.62917 8.59519C1.42708 8.37589 1.27708 8.10045 1.25333 7.78115L1.25 7.69299V7.09782C1.44361 7.21419 1.65111 7.3158 1.8725 7.40264C2.71833 7.73203 3.82458 7.9158 5 7.9158C6.17542 7.9158 7.28167 7.73203 8.1275 7.40264C8.29361 7.33773 8.45181 7.26419 8.60208 7.18203L8.75 7.09782ZM1.25 4.68554C1.44361 4.80191 1.65111 4.90352 1.8725 4.99036C2.71833 5.31975 3.82458 5.50352 5 5.50352C6.17542 5.50352 7.28167 5.31975 8.1275 4.99036C8.34261 4.90695 8.55082 4.805 8.75 4.68554V6.04738C8.47342 6.27234 8.16604 6.45186 7.83833 6.57984C7.10708 6.86492 6.10333 7.03905 5 7.03905C3.89708 7.03905 2.89333 6.86492 2.16167 6.57984C1.83396 6.45186 1.52658 6.27234 1.25 6.04738V4.68554ZM5 1.33334C5.96417 1.33334 6.85667 1.51229 7.52417 1.81975C7.85708 1.97326 8.15292 2.16712 8.37083 2.40483C8.57292 2.62413 8.72292 2.89957 8.74667 3.21887L8.75 3.30703V3.6351C8.47342 3.86006 8.16604 4.03958 7.83833 4.16755C7.10708 4.45264 6.10333 4.62676 5 4.62676C3.89708 4.62676 2.89333 4.45264 2.16167 4.16755C1.88 4.0574 1.61317 3.90908 1.36792 3.72633L1.25 3.6351V3.30703C1.25 2.95001 1.40875 2.64475 1.62917 2.40483C1.84708 2.16712 2.14292 1.97326 2.47583 1.81975C3.14333 1.51273 4.03583 1.33334 5 1.33334Z" fill="#FFBF6A"/>
<defs>
<linearGradient id="paint0_linear_2245_605" x1="4.96692" y1="10.0678" x2="5.54089" y2="10.0803" gradientUnits="userSpaceOnUse">
<stop stop-color="#FFD79C"/>
<stop offset="0.453229" stop-color="#FFA233"/>
<stop offset="1" stop-color="#FFC2A2"/>
</linearGradient>
</defs>
</svg>
