<svg width="40" height="31" viewBox="0 0 40 31" fill="none" xmlns="http://www.w3.org/2000/svg">
<g filter="url(#filter0_d_2127_5514)">
<path d="M26.5108 19.2231V16.8125H25.8199C24.6098 14.8083 21.9367 13.4154 18.8345 13.4154C15.7323 13.4154 13.0585 14.8083 11.8485 16.8125H11.1575V19.2231C11.1575 22.4315 14.5945 25.0315 18.8345 25.0315C23.0745 25.0315 26.5108 22.4352 26.5108 19.2231Z" fill="#E86124"/>
<path d="M13.4258 19.2231V16.8125H14.1167C15.1771 15.0568 17.3612 13.7708 19.9686 13.4781C19.5921 13.4362 19.2134 13.4153 18.8345 13.4154C15.7316 13.4154 13.0585 14.8083 11.8485 16.8125H11.1575V19.2231C11.1575 22.4315 14.5945 25.0315 18.8345 25.0315C19.2135 25.0318 19.5921 25.0106 19.9686 24.9681C16.2662 24.5537 13.4258 22.1402 13.4258 19.2231Z" fill="#DC4A26"/>
<path d="M18.8345 22.621C23.0744 22.621 26.5115 20.0205 26.5115 16.8126C26.5115 13.6047 23.0744 11.0042 18.8345 11.0042C14.5946 11.0042 11.1575 13.6047 11.1575 16.8126C11.1575 20.0205 14.5946 22.621 18.8345 22.621Z" fill="#F0E92D"/>
<path d="M18.8345 21.0157C21.9028 21.0157 24.3901 19.1339 24.3901 16.8126C24.3901 14.4913 21.9028 12.6095 18.8345 12.6095C15.7663 12.6095 13.279 14.4913 13.279 16.8126C13.279 19.1339 15.7663 21.0157 18.8345 21.0157Z" fill="#EF8521"/>
<path d="M14.9088 17.5411C14.9088 15.1999 16.6786 13.2273 19.0884 12.6138C19.0043 12.6138 18.9195 12.6087 18.8347 12.6087C15.7657 12.6087 13.2785 14.4905 13.2785 16.8118C13.2785 18.3058 14.3108 19.6139 15.8593 20.3624C15.2457 19.5495 14.9122 18.5596 14.9088 17.5411Z" fill="#E86124"/>
<path d="M25.7002 15.733V13.3217H25.0093C23.7985 11.3175 21.1262 9.92453 18.0232 9.92453C14.9203 9.92453 12.248 11.3175 11.0372 13.3217H10.3462V15.733C10.3462 18.9406 13.7832 21.5414 18.0232 21.5414C22.2632 21.5414 25.7002 18.9406 25.7002 15.733Z" fill="#E86124"/>
<path d="M12.6152 15.733V13.3217H13.3061C14.3658 11.5667 16.5506 10.2807 19.1573 9.98794C18.7808 9.94581 18.4021 9.92464 18.0232 9.92453C14.9203 9.92453 12.248 11.3175 11.0372 13.3217H10.3462V15.733C10.3462 18.9406 13.7832 21.5414 18.0232 21.5414C18.4021 21.5413 18.7808 21.5201 19.1573 21.478C15.4556 21.0636 12.6152 18.6494 12.6152 15.733Z" fill="#DC4A26"/>
<path d="M18.0232 19.1302C22.2631 19.1302 25.7002 16.5297 25.7002 13.3217C25.7002 10.1138 22.2631 7.51331 18.0232 7.51331C13.7833 7.51331 10.3462 10.1138 10.3462 13.3217C10.3462 16.5297 13.7833 19.1302 18.0232 19.1302Z" fill="#F0E92D"/>
<path d="M18.0232 17.5249C21.0915 17.5249 23.5787 15.6431 23.5787 13.3218C23.5787 11.0005 21.0915 9.11865 18.0232 9.11865C14.955 9.11865 12.4677 11.0005 12.4677 13.3218C12.4677 15.6431 14.955 17.5249 18.0232 17.5249Z" fill="#EF8521"/>
<path d="M14.0981 14.0511C14.0981 11.7099 15.8678 9.73733 18.2776 9.12381C18.1928 9.12381 18.1088 9.11865 18.0232 9.11865C14.9549 9.11865 12.4677 11.0005 12.4677 13.3218C12.4677 14.8158 13.5001 16.1239 15.0486 16.8723C14.4344 16.0598 14.1009 15.0696 14.0981 14.0511Z" fill="#E86124"/>
<path d="M26.5108 12.2098V9.79854H25.8199C24.6098 7.7943 21.9367 6.40137 18.8345 6.40137C15.7323 6.40137 13.0585 7.7943 11.8485 9.79854H11.1575V12.2098C11.1575 15.4175 14.5945 18.0175 18.8345 18.0175C23.0745 18.0175 26.5108 15.4175 26.5108 12.2098Z" fill="#E86124"/>
<path d="M13.4258 12.2098V9.79854H14.1167C15.1771 8.04281 17.3612 6.75679 19.9686 6.46478C19.5921 6.4223 19.2135 6.40113 18.8345 6.40137C15.7316 6.40137 13.0585 7.79431 11.8485 9.79854H11.1575V12.2098C11.1575 15.4175 14.5945 18.0175 18.8345 18.0175C19.2134 18.0176 19.5921 17.9967 19.9686 17.9548C16.2662 17.5397 13.4258 15.1255 13.4258 12.2098Z" fill="#DC4A26"/>
<path d="M18.8345 15.6069C23.0744 15.6069 26.5115 13.0064 26.5115 9.79844C26.5115 6.59052 23.0744 3.98999 18.8345 3.98999C14.5946 3.98999 11.1575 6.59052 11.1575 9.79844C11.1575 13.0064 14.5946 15.6069 18.8345 15.6069Z" fill="#F0E92D"/>
<path d="M18.8345 14.0016C21.9028 14.0016 24.3901 12.1198 24.3901 9.79848C24.3901 7.47715 21.9028 5.59534 18.8345 5.59534C15.7663 5.59534 13.279 7.47715 13.279 9.79848C13.279 12.1198 15.7663 14.0016 18.8345 14.0016Z" fill="#EF8521"/>
<path d="M14.9088 10.527C14.9088 8.18654 16.6786 6.21327 19.0884 5.59976C19.0043 5.59976 18.9195 5.59534 18.8347 5.59534C15.7657 5.59534 13.2785 7.47716 13.2785 9.79848C13.2785 11.2924 14.3108 12.6006 15.8593 13.349C15.2456 12.536 14.912 11.5457 14.9088 10.527Z" fill="#E86124"/>
<path d="M25.7002 8.71964V6.30836H25.0093C23.7985 4.30413 21.1262 2.91119 18.0232 2.91119C14.9203 2.91119 12.248 4.30413 11.0372 6.30836H10.3462V8.71964C10.3462 11.9273 13.7832 14.5273 18.0232 14.5273C22.2632 14.5273 25.7002 11.9273 25.7002 8.71964Z" fill="#E86124"/>
<path d="M12.6152 8.71964V6.30836H13.3061C14.3658 4.55263 16.5506 3.26662 19.1573 2.97388C18.7807 2.93199 18.4021 2.91106 18.0232 2.91119C14.9203 2.91119 12.248 4.30413 11.0372 6.30836H10.3462V8.71964C10.3462 11.9273 13.7832 14.5273 18.0232 14.5273C18.4021 14.5276 18.7808 14.5064 19.1573 14.4639C15.4556 14.0495 12.6152 11.6353 12.6152 8.71964Z" fill="#DC4A26"/>
<path d="M18.0232 12.1169C22.2631 12.1169 25.7002 9.51633 25.7002 6.30841C25.7002 3.1005 22.2631 0.499969 18.0232 0.499969C13.7833 0.499969 10.3462 3.1005 10.3462 6.30841C10.3462 9.51633 13.7833 12.1169 18.0232 12.1169Z" fill="#F0E92D"/>
<path d="M18.0232 10.5116C21.0915 10.5116 23.5787 8.62976 23.5787 6.30843C23.5787 3.9871 21.0915 2.10529 18.0232 2.10529C14.955 2.10529 12.4677 3.9871 12.4677 6.30843C12.4677 8.62976 14.955 10.5116 18.0232 10.5116Z" fill="#EF8521"/>
<path d="M14.0981 7.03691C14.0981 4.69569 15.8678 2.72317 18.2776 2.10965C18.1928 2.10965 18.1088 2.10449 18.0232 2.10449C14.9549 2.10449 12.4677 3.98632 12.4677 6.30763C12.4677 7.80159 13.5001 9.10973 15.0486 9.85818C14.4347 9.04547 14.1011 8.05544 14.0981 7.03691Z" fill="#E86124"/>
<path d="M39.7439 20.3358V17.9245H39.053C37.8422 15.9203 35.1698 14.5273 32.0669 14.5273C28.9639 14.5273 26.2909 15.9203 25.0808 17.9245H24.3899V20.3358C24.3899 23.5435 27.8269 26.1442 32.0669 26.1442C36.3069 26.1442 39.7439 23.5412 39.7439 20.3358Z" fill="#E86124"/>
<path d="M26.6581 20.3358V17.9245H27.3491C28.4094 16.1695 30.5936 14.8828 33.201 14.5908C32.8245 14.5483 32.4458 14.5271 32.0669 14.5273C28.9639 14.5273 26.2909 15.9203 25.0808 17.9245H24.3899V20.3358C24.3899 23.5435 27.8269 26.1442 32.0669 26.1442C32.4458 26.1441 32.8244 26.1229 33.201 26.0808C29.4993 25.6657 26.6581 23.2522 26.6581 20.3358Z" fill="#DC4A26"/>
<path d="M32.0669 23.733C36.3068 23.733 39.7439 21.1325 39.7439 17.9245C39.7439 14.7166 36.3068 12.1161 32.0669 12.1161C27.827 12.1161 24.3899 14.7166 24.3899 17.9245C24.3899 21.1325 27.827 23.733 32.0669 23.733Z" fill="#F0E92D"/>
<path d="M32.0672 22.1277C35.1354 22.1277 37.6227 20.2459 37.6227 17.9246C37.6227 15.6032 35.1354 13.7214 32.0672 13.7214C28.999 13.7214 26.5117 15.6032 26.5117 17.9246C26.5117 20.2459 28.999 22.1277 32.0672 22.1277Z" fill="#EF8521"/>
<path d="M28.1412 18.6531C28.1412 16.3126 29.911 14.3394 32.3208 13.7259C32.2367 13.7259 32.1519 13.7214 32.0671 13.7214C28.9988 13.7214 26.5108 15.6033 26.5108 17.9246C26.5108 19.4185 27.5432 20.7267 29.0917 21.4751C28.4778 20.6621 28.1443 19.6719 28.1412 18.6531Z" fill="#E86124"/>
<path d="M38.5723 16.32V13.9088H37.8814C36.6713 11.9045 33.9983 10.5116 30.8953 10.5116C27.7924 10.5116 25.1201 11.9045 23.91 13.9088H23.2191V16.32C23.2191 19.5277 26.656 22.1278 30.8953 22.1278C35.1346 22.1278 38.5723 19.5277 38.5723 16.32Z" fill="#E86124"/>
<path d="M25.4873 16.32V13.9088H26.176C27.2364 12.153 29.4205 10.867 32.028 10.5743C31.6519 10.5325 31.2737 10.5115 30.8953 10.5116C27.7931 10.5116 25.1201 11.9045 23.91 13.9088H23.2191V16.32C23.2191 19.5277 26.656 22.1278 30.8953 22.1278C31.2745 22.1279 31.6533 22.107 32.0302 22.0651C28.3277 21.6499 25.4873 19.2357 25.4873 16.32Z" fill="#DC4A26"/>
<path d="M30.8953 19.7171C35.1351 19.7171 38.5723 17.1166 38.5723 13.9087C38.5723 10.7008 35.1351 8.10022 30.8953 8.10022C26.6554 8.10022 23.2183 10.7008 23.2183 13.9087C23.2183 17.1166 26.6554 19.7171 30.8953 19.7171Z" fill="#F0E92D"/>
<path d="M30.8952 18.1118C33.9635 18.1118 36.4508 16.23 36.4508 13.9087C36.4508 11.5873 33.9635 9.70554 30.8952 9.70554C27.827 9.70554 25.3397 11.5873 25.3397 13.9087C25.3397 16.23 27.827 18.1118 30.8952 18.1118Z" fill="#EF8521"/>
<path d="M26.9701 14.6372C26.9701 12.2967 28.7398 10.3235 31.1496 9.70996C31.0656 9.70701 30.9808 9.70554 30.8952 9.70554C27.8269 9.70554 25.3397 11.5874 25.3397 13.9087C25.3397 15.4026 26.3721 16.7108 27.9206 17.4592C27.3068 16.6462 26.9733 15.6559 26.9701 14.6372Z" fill="#E86124"/>
<path d="M16.3629 15.7905L14.5659 14.183L14.105 14.6992C11.8043 14.2649 8.98453 15.3289 6.91614 17.6414C4.84775 19.9538 4.10372 22.8776 4.79171 25.1127L4.33084 25.6288L6.12787 27.2363C8.51923 29.3748 12.7489 28.5467 15.5753 25.3862C18.4018 22.2258 18.7542 17.929 16.3629 15.7905Z" fill="#E86124"/>
<path d="M7.63944 25.544L5.84241 23.9365L6.30328 23.4203C5.70157 21.4596 6.1971 18.9761 7.71908 16.8362C7.43641 17.0894 7.16831 17.3585 6.91605 17.6421C4.85135 19.9553 4.10364 22.8776 4.79089 25.1141L4.33002 25.6303L6.12704 27.2378C8.51841 29.3763 12.7481 28.5482 15.5745 25.3877C15.8272 25.1063 16.0638 24.8109 16.2832 24.5028C13.5061 26.9797 9.81327 27.4885 7.63944 25.544Z" fill="#DC4A26"/>
<path d="M13.7767 23.7779C16.6033 20.6177 16.9564 16.3221 14.5653 14.1835C12.1743 12.0449 7.94454 12.8731 5.11797 16.0334C2.29139 19.1936 1.93833 23.4892 4.32938 25.6278C6.72043 27.7664 10.9502 26.9382 13.7767 23.7779Z" fill="#F0E92D"/>
<path d="M12.5803 22.7077C14.6258 20.4208 14.8814 17.3123 13.1511 15.7648C11.4209 14.2173 8.36009 14.8167 6.31462 17.1036C4.26915 19.3905 4.01359 22.499 5.74381 24.0465C7.47404 25.5941 10.5348 24.9947 12.5803 22.7077Z" fill="#EF8521"/>
<path d="M7.37238 23.3201C5.62771 21.7597 5.33497 19.1272 6.48751 16.9202C6.42901 16.9807 6.3715 17.0426 6.31496 17.106C4.26943 19.392 4.01356 22.5016 5.74422 24.0493C6.85768 25.0456 8.52272 25.151 10.1133 24.4918C9.09676 24.4087 8.1348 23.9975 7.37238 23.3201Z" fill="#E86124"/>
</g>
<defs>
<filter id="filter0_d_2127_5514" x="2.74368" y="0.499969" width="37.0002" height="29.9255" filterUnits="userSpaceOnUse" color-interpolation-filters="sRGB">
<feFlood flood-opacity="0" result="BackgroundImageFix"/>
<feColorMatrix in="SourceAlpha" type="matrix" values="0 0 0 0 0 0 0 0 0 0 0 0 0 0 0 0 0 0 127 0" result="hardAlpha"/>
<feOffset dy="2"/>
<feComposite in2="hardAlpha" operator="out"/>
<feColorMatrix type="matrix" values="0 0 0 0 0 0 0 0 0 0 0 0 0 0 0 0 0 0 0.15 0"/>
<feBlend mode="normal" in2="BackgroundImageFix" result="effect1_dropShadow_2127_5514"/>
<feBlend mode="normal" in="SourceGraphic" in2="effect1_dropShadow_2127_5514" result="shape"/>
</filter>
</defs>
</svg>
