<svg width="48" height="53" viewBox="0 0 48 53" fill="none" xmlns="http://www.w3.org/2000/svg">
<g opacity="0.3" clip-path="url(#clip0_2223_4625)">
<path d="M34 9.25C35.5304 9.24991 37.003 9.88946 38.1165 11.0378C39.23 12.1862 39.9002 13.7565 39.99 15.4275L40 15.8125V25.3281L41.188 24.7506C42.416 24.1534 43.832 25.0788 43.988 26.4963L44 26.75V44.25C44.0003 45.3538 43.6192 46.4169 42.933 47.2262C42.2468 48.0355 41.3063 48.5313 40.3 48.6141L40 48.625H8C6.99085 48.6254 6.01887 48.2085 5.2789 47.458C4.53894 46.7075 4.08569 45.6788 4.01 44.5781L4 44.25V26.75C4 25.28 5.35 24.2409 6.594 24.6609L6.814 24.7506L8 25.3281V15.8125C7.99991 14.1386 8.58465 12.5279 9.63457 11.3101C10.6845 10.0922 12.1202 9.35914 13.648 9.26094L14 9.25H34ZM34 13.625H14C13.4696 13.625 12.9609 13.8555 12.5858 14.2657C12.2107 14.6759 12 15.2323 12 15.8125V27.2728L24 33.1069L36 27.2728V15.8125C36 15.2323 35.7893 14.6759 35.4142 14.2657C35.0391 13.8555 34.5304 13.625 34 13.625ZM24 20.1875C24.5098 20.1881 25.0001 20.4016 25.3707 20.7844C25.7414 21.1671 25.9645 21.6902 25.9943 22.2468C26.0242 22.8034 25.8587 23.3515 25.5315 23.779C25.2043 24.2066 24.7402 24.4813 24.234 24.5472L24 24.5625H20C19.4902 24.5619 18.9999 24.3484 18.6293 23.9656C18.2586 23.5829 18.0355 23.0598 18.0057 22.5032C17.9758 21.9466 18.1413 21.3985 18.4685 20.971C18.7957 20.5434 19.2598 20.2687 19.766 20.2028L20 20.1875H24Z" fill="#FFBF6A"/>
</g>
<defs>
<clipPath id="clip0_2223_4625">
<rect width="48" height="52.5" fill="white" transform="translate(0 0.5)"/>
</clipPath>
</defs>
</svg>
