<svg width="11" height="11" viewBox="0 0 11 11" fill="none" xmlns="http://www.w3.org/2000/svg">
<g clip-path="url(#clip0_2203_558)">
<path d="M9.9375 5.5C9.9375 7.95076 7.95076 9.9375 5.5 9.9375C3.04924 9.9375 1.0625 7.95076 1.0625 5.5C1.0625 3.04924 3.04924 1.0625 5.5 1.0625C7.95076 1.0625 9.9375 3.04924 9.9375 5.5Z" stroke="#DDC6AB" stroke-width="0.5" stroke-linecap="round" stroke-linejoin="round"/>
<path d="M4.625 5.01471L3.89062 4.28033M3.89062 4.28033L3.15625 3.54596M3.89062 4.28033L3.15625 5.01471M3.89062 4.28033L4.625 3.54596M8.05207 5.01471L7.3177 4.28033M7.3177 4.28033L6.58333 3.54596M7.3177 4.28033L6.58333 5.01471M7.3177 4.28033L8.05207 3.54596M3.64583 7.53554C3.87385 7.23151 4.16952 6.98476 4.50942 6.8148C4.84933 6.64485 5.22414 6.55637 5.60416 6.55637C6.40512 6.55637 7.11599 6.94118 7.56249 7.53554" stroke="#DDC6AB" stroke-width="0.5" stroke-linecap="round" stroke-linejoin="round"/>
</g>
<defs>
<clipPath id="clip0_2203_558">
<rect width="10" height="10" fill="white" transform="translate(0.5 0.5)"/>
</clipPath>
</defs>
</svg>
