<svg width="28" height="29" viewBox="0 0 28 29" fill="none" xmlns="http://www.w3.org/2000/svg">
<path d="M14 0.75C17.713 0.75 21.274 2.225 23.8995 4.8505C26.525 7.47601 28 11.037 28 14.75C28 18.463 26.525 22.024 23.8995 24.6495C21.274 27.275 17.713 28.75 14 28.75C10.287 28.75 6.72601 27.275 4.1005 24.6495C1.475 22.024 0 18.463 0 14.75C0 11.037 1.475 7.47601 4.1005 4.8505C6.72601 2.225 10.287 0.75 14 0.75ZM12.256 17.512L9.146 14.4C9.03451 14.2885 8.90215 14.2001 8.75648 14.1397C8.6108 14.0794 8.45467 14.0483 8.297 14.0483C8.13933 14.0483 7.9832 14.0794 7.83752 14.1397C7.69185 14.2001 7.55949 14.2885 7.448 14.4C7.22283 14.6252 7.09633 14.9306 7.09633 15.249C7.09633 15.5674 7.22283 15.8728 7.448 16.098L11.408 20.058C11.5192 20.1701 11.6514 20.259 11.7971 20.3197C11.9429 20.3804 12.0991 20.4116 12.257 20.4116C12.4149 20.4116 12.5711 20.3804 12.7169 20.3197C12.8626 20.259 12.9948 20.1701 13.106 20.058L21.306 11.856C21.419 11.745 21.5089 11.6127 21.5705 11.4667C21.6321 11.3208 21.6641 11.1641 21.6649 11.0057C21.6656 10.8473 21.635 10.6903 21.5748 10.5438C21.5145 10.3973 21.4259 10.2642 21.3139 10.1521C21.202 10.04 21.069 9.9512 20.9225 9.8908C20.7761 9.83039 20.6191 9.79957 20.4607 9.80012C20.3023 9.80067 20.1456 9.83258 19.9996 9.894C19.8536 9.95542 19.7212 10.0451 19.61 10.158L12.256 17.512Z" fill="#FFBF6A"/>
</svg>
