<svg width="48" height="53" viewBox="0 0 48 53" fill="none" xmlns="http://www.w3.org/2000/svg">
<path d="M4.29597 25.8344C14.7893 20.8338 21.7873 17.5365 25.29 15.9425C35.288 11.3947 37.364 10.605 38.718 10.5788C39.018 10.5722 39.682 10.6531 40.114 11.0381C40.478 11.3597 40.578 11.7972 40.626 12.1034C40.674 12.4097 40.734 13.1075 40.686 13.6522C40.146 19.88 37.8 34.9891 36.606 41.9628C36.102 44.9116 35.11 45.9003 34.146 45.9988C32.056 46.2088 30.47 44.4894 28.446 43.0369C25.276 40.7641 23.486 39.3488 20.41 37.1328C16.856 34.5713 19.16 33.1625 21.186 30.8613C21.716 30.2597 30.926 21.0963 31.106 20.265C31.126 20.16 31.148 19.7728 30.938 19.5694C30.728 19.3638 30.418 19.4338 30.192 19.4906C29.8733 19.5694 24.812 23.2283 15.008 30.4675C13.5693 31.5467 12.268 32.0724 11.104 32.0447C9.81797 32.0141 7.34397 31.2506 5.50797 30.5966C3.25197 29.7938 1.45997 29.3716 1.61597 28.0088C1.69731 27.3 2.59064 26.5752 4.29597 25.8344Z" fill="#FFBF6A"/>
</svg>
