<svg width="17" height="16" viewBox="0 0 17 16" fill="none" xmlns="http://www.w3.org/2000/svg">
<path d="M9.02712 15.5726L9.01734 15.5741L8.95423 15.601L8.93645 15.6041L8.92401 15.601L8.8609 15.5741C8.85142 15.5716 8.84431 15.5729 8.83957 15.578L8.83601 15.5857L8.8209 15.9147L8.82534 15.9301L8.83423 15.94L8.92668 15.9969L8.94001 16L8.95068 15.9969L9.04312 15.94L9.05379 15.9277L9.05734 15.9147L9.04223 15.5864C9.03986 15.5782 9.03483 15.5736 9.02712 15.5726ZM9.26268 15.4857L9.25112 15.4873L9.08668 15.5588L9.07779 15.5664L9.07512 15.5749L9.09112 15.9055L9.09557 15.9147L9.10268 15.9201L9.28134 15.9915C9.2926 15.9941 9.3012 15.9921 9.30712 15.9854L9.31068 15.9746L9.28045 15.5026C9.27749 15.4934 9.27157 15.4878 9.26268 15.4857ZM8.62712 15.4873C8.6232 15.4852 8.61852 15.4846 8.61405 15.4854C8.60958 15.4863 8.60566 15.4886 8.60312 15.4919L8.59779 15.5026L8.56757 15.9746C8.56816 15.9839 8.5732 15.99 8.58268 15.9931L8.59601 15.9915L8.77468 15.9201L8.78357 15.9139L8.78712 15.9055L8.80223 15.5749L8.79957 15.5657L8.79068 15.558L8.62712 15.4873Z" fill="#FFBF6A"/>
<path d="M14.5 10.5565V11.5088C14.5 12.08 14.246 12.5684 13.8933 12.9523C13.5447 13.3326 13.0713 13.6428 12.5387 13.8884C11.4707 14.3796 10.0427 14.6666 8.5 14.6666C6.95733 14.6666 5.52933 14.3803 4.46133 13.8884C3.92867 13.6428 3.45533 13.3326 3.10667 12.9523C2.78333 12.6014 2.54333 12.1607 2.50533 11.6498L2.5 11.5088V10.5565C2.80978 10.7427 3.14178 10.9052 3.496 11.0442C4.84933 11.5712 6.61933 11.8652 8.5 11.8652C10.3807 11.8652 12.1507 11.5712 13.504 11.0442C13.7698 10.9403 14.0229 10.8227 14.2633 10.6912L14.5 10.5565ZM2.5 6.69682C2.80978 6.88302 3.14178 7.04559 3.496 7.18454C4.84933 7.71156 6.61933 8.00559 8.5 8.00559C10.3807 8.00559 12.1507 7.71156 13.504 7.18454C13.8482 7.05109 14.1813 6.88796 14.5 6.69682V8.87577C14.0575 9.23571 13.5657 9.52295 13.0413 9.7277C11.8713 10.1838 10.2653 10.4624 8.5 10.4624C6.73533 10.4624 5.12933 10.1838 3.95867 9.7277C3.43434 9.52295 2.94253 9.23571 2.5 8.87577V6.69682ZM8.5 1.33331C10.0427 1.33331 11.4707 1.61963 12.5387 2.11156C13.0713 2.35717 13.5447 2.66735 13.8933 3.0477C14.2167 3.39858 14.4567 3.83928 14.4947 4.35016L14.5 4.49121V5.01612C14.0575 5.37606 13.5657 5.6633 13.0413 5.86805C11.8713 6.32419 10.2653 6.60279 8.5 6.60279C6.73533 6.60279 5.12933 6.32419 3.95867 5.86805C3.508 5.6918 3.08107 5.45448 2.68867 5.16209L2.5 5.01612V4.49121C2.5 3.91998 2.754 3.43156 3.10667 3.0477C3.45533 2.66735 3.92867 2.35717 4.46133 2.11156C5.52933 1.62033 6.95733 1.33331 8.5 1.33331Z" fill="#FFBF6A"/>
</svg>
