<svg width="24" height="24" viewBox="0 0 24 24" fill="none" xmlns="http://www.w3.org/2000/svg">
<path d="M12.7907 23.3589L12.776 23.3612L12.6813 23.4015L12.6547 23.4061L12.636 23.4015L12.5413 23.3612C12.5271 23.3573 12.5164 23.3593 12.5093 23.3669L12.504 23.3785L12.4813 23.872L12.488 23.895L12.5013 23.91L12.64 23.9954L12.66 24L12.676 23.9954L12.8147 23.91L12.8307 23.8916L12.836 23.872L12.8133 23.3796C12.8098 23.3673 12.8022 23.3604 12.7907 23.3589ZM13.144 23.2286L13.1267 23.2309L12.88 23.3381L12.8667 23.3496L12.8627 23.3623L12.8867 23.8581L12.8933 23.872L12.904 23.8801L13.172 23.9873C13.1889 23.9911 13.2018 23.9881 13.2107 23.9781L13.216 23.9619L13.1707 23.2539C13.1662 23.2401 13.1573 23.2316 13.144 23.2286ZM12.1907 23.2309C12.1848 23.2278 12.1778 23.2268 12.171 23.2281C12.1643 23.2294 12.1585 23.2329 12.1547 23.2378L12.1467 23.2539L12.1013 23.9619C12.1022 23.9758 12.1098 23.985 12.124 23.9896L12.144 23.9873L12.412 23.8801L12.4253 23.8708L12.4307 23.8581L12.4533 23.3623L12.4493 23.3485L12.436 23.337L12.1907 23.2309Z" fill="#FFFBF0"/>
<path d="M21 15.8347V17.2632C21 18.12 20.619 18.8526 20.09 19.4284C19.567 19.9989 18.857 20.4642 18.058 20.8326C16.456 21.5695 14.314 22 12 22C9.686 22 7.544 21.5705 5.942 20.8326C5.143 20.4642 4.433 19.9989 3.91 19.4284C3.425 18.9021 3.065 18.2411 3.008 17.4747L3 17.2632V15.8347C3.46467 16.114 3.96267 16.3579 4.494 16.5663C6.524 17.3568 9.179 17.7979 12 17.7979C14.821 17.7979 17.476 17.3568 19.506 16.5663C19.9047 16.4105 20.2843 16.234 20.645 16.0368L21 15.8347ZM3 10.0453C3.46467 10.3246 3.96267 10.5684 4.494 10.7768C6.524 11.5674 9.179 12.0084 12 12.0084C14.821 12.0084 17.476 11.5674 19.506 10.7768C20.0223 10.5767 20.522 10.332 21 10.0453V13.3137C20.3362 13.8536 19.5985 14.2845 18.812 14.5916C17.057 15.2758 14.648 15.6937 12 15.6937C9.353 15.6937 6.944 15.2758 5.188 14.5916C4.40151 14.2845 3.66379 13.8536 3 13.3137V10.0453ZM12 2C14.314 2 16.456 2.42947 18.058 3.16737C18.857 3.53579 19.567 4.00105 20.09 4.57158C20.575 5.09789 20.935 5.75895 20.992 6.52526L21 6.73684V7.52421C20.3362 8.06412 19.5985 8.49498 18.812 8.80211C17.057 9.48632 14.648 9.90421 12 9.90421C9.353 9.90421 6.944 9.48632 5.188 8.80211C4.51199 8.53774 3.8716 8.18176 3.283 7.74316L3 7.52421V6.73684C3 5.88 3.381 5.14737 3.91 4.57158C4.433 4.00105 5.143 3.53579 5.942 3.16737C7.544 2.43053 9.686 2 12 2Z" fill="#FFFBF0"/>
</svg>
