<svg width="26" height="24" viewBox="0 0 26 24" fill="none" xmlns="http://www.w3.org/2000/svg">
<path d="M4.25 8.75C4.25 6.42936 5.17187 4.20376 6.81282 2.56282C8.45376 0.921872 10.6794 0 13 0C15.3206 0 17.5462 0.921872 19.1872 2.56282C20.8281 4.20376 21.75 6.42936 21.75 8.75V10.0437C23.87 10.3475 25.5 12.1713 25.5 14.375V14.6875C25.5 16.9062 23.5862 18.8512 21.335 18.7475C20.41 21.3975 18.0575 23.1838 15.5188 23.6362C14.9313 23.8512 14.2362 23.75 13.625 23.75C13.1277 23.75 12.6508 23.5525 12.2992 23.2008C11.9475 22.8492 11.75 22.3723 11.75 21.875C11.75 21.3777 11.9475 20.9008 12.2992 20.5492C12.6508 20.1975 13.1277 20 13.625 20C14.6163 20 15.7137 19.8562 16.3837 20.7612C18.0037 19.99 19.25 18.3612 19.25 16.25V8.75C19.25 7.0924 18.5915 5.50269 17.4194 4.33058C16.2473 3.15848 14.6576 2.5 13 2.5C11.3424 2.5 9.75268 3.15848 8.58058 4.33058C7.40848 5.50269 6.75 7.0924 6.75 8.75V16.5625C6.75 17.1427 6.51953 17.6991 6.1093 18.1093C5.69906 18.5195 5.14266 18.75 4.5625 18.75C3.48506 18.75 2.45175 18.322 1.68988 17.5601C0.928012 16.7983 0.5 15.7649 0.5 14.6875V14.375C0.49973 13.3228 0.878699 12.3057 1.56744 11.5102C2.25619 10.7147 3.20856 10.1941 4.25 10.0437V8.75Z" fill="#CBA87F"/>
</svg>
