<svg width="16" height="16" viewBox="0 0 16 16" fill="none" xmlns="http://www.w3.org/2000/svg">
<path fill-rule="evenodd" clip-rule="evenodd" d="M8.28255 0.717022L8.93805 2.10243H8.94083L10.3935 2.3198C10.6518 2.36328 10.7601 2.69659 10.5713 2.89367L9.51579 3.95446L9.76577 5.4645C9.80743 5.73404 9.53801 5.94272 9.29914 5.81809L8.00479 5.1109L6.70211 5.82969C6.46324 5.95431 6.1966 5.74563 6.23548 5.47609L6.48546 3.96606L5.42999 2.89367C5.23834 2.69369 5.34944 2.36038 5.60775 2.3198L7.06042 2.10243L7.71593 0.717022C7.83536 0.467765 8.17422 0.47646 8.28255 0.717022Z" fill="#FFBF6A"/>
<path fill-rule="evenodd" clip-rule="evenodd" d="M5.6 8.43798C5.6 7.91946 5.9575 7.50055 6.4 7.50055H9.6C10.0425 7.50055 10.4 7.91946 10.4 8.43798V14.0626C10.4 14.5811 10.0425 15 9.6 15H6.4C5.9575 15 5.6 14.5811 5.6 14.0626V8.43798ZM0 10.3128C0 9.79432 0.3575 9.37541 0.8 9.37541H4C4.4425 9.37541 4.8 9.79432 4.8 10.3128V14.0626C4.8 14.5811 4.4425 15 4 15H0.8C0.3575 15 0 14.5811 0 14.0626V10.3128ZM11.2 14.0626V12.1877C11.2 11.6692 11.5575 11.2503 12 11.2503H15.2C15.6425 11.2503 16 11.6692 16 12.1877V14.0626C16 14.5811 15.6425 15 15.2 15H12C11.5575 15 11.2 14.5811 11.2 14.0626Z" fill="#FFBF6A"/>
</svg>
